<?xml version="1.0" encoding="iso-8859-1"?>
<!-- Generator: Adobe Illustrator 19.0.0, SVG Export Plug-In . SVG Version: 6.00 Build 0)  -->
<svg version="1.1" id="Capa_1" xmlns="http://www.w3.org/2000/svg" xmlns:xlink="http://www.w3.org/1999/xlink" x="0px" y="0px"
	 viewBox="0 0 512 512" style="enable-background:new 0 0 512 512;" xml:space="preserve">
<g transform="translate(0 -1)">
	<g>
		<g>
			<path d="M153.079,132.066c4.944,2.427,10.067,4.944,15.371,7.461c43.775,21.124,102.831,49.528,123.955,104.629
				c0.099-0.342,0.216-0.665,0.36-0.989c5.564-11.488,12.414-22.319,20.404-32.27c4.225-5.573,8.18-10.876,11.775-16.539
				c9.195-14.238,14.148-30.786,14.292-47.73c0.355-17.341-1.686-34.639-6.044-51.416h147.348c7.443,0,13.483,6.04,13.483,13.483
				s-6.04,13.483-13.483,13.483h-44.944c-17.375,0-31.461,14.085-31.461,31.461c0,17.375,14.085,31.461,31.461,31.461h26.966
				c7.443,0,13.483,6.04,13.483,13.483s-6.04,13.483-13.483,13.483h-71.91c-17.366,0.018-31.443,14.094-31.461,31.461v22.472H224.36
				c-4.962,0.018-8.971,4.027-8.989,8.989v188.764h89.888c4.962,0.018,8.971,4.027,8.989,8.989h71.91
				c0.018-4.962,4.027-8.971,8.989-8.989h89.888V274.987c-0.018-4.962-4.027-8.971-8.989-8.989h-98.876v-22.472
				c0.009-7.443,6.04-13.474,13.483-13.483h71.91c17.375,0,31.461-14.085,31.461-31.461c0-17.375-14.085-31.461-31.461-31.461
				h-26.966c-7.443,0-13.483-6.04-13.483-13.483s6.04-13.483,13.483-13.483h44.944c17.375,0,31.461-14.085,31.461-31.461
				c0-17.375-14.085-31.461-31.461-31.461H326.304c-6.847-13.58-16.822-25.439-29.225-34.517
				C261.663,15.122,228.764,3.616,190.472,5.504c-21.519,1.555-42.903,4.62-64,9.169c-5.753,1.169-10.966,2.517-16,4.045
				C110.022,39.841,111.91,111.661,153.079,132.066z M251.146,420.605c-0.099,0.566-0.279,1.106-0.539,1.618
				c-0.198,0.575-0.467,1.115-0.809,1.618l-1.079,1.348c-1.726,1.645-4,2.571-6.382,2.607c-0.575-0.018-1.142-0.072-1.708-0.18
				c-0.593-0.081-1.169-0.27-1.708-0.539c-0.575-0.198-1.115-0.467-1.618-0.809c-0.467-0.333-0.917-0.692-1.348-1.079
				c-3.479-3.542-3.479-9.222,0-12.764c2.607-2.508,6.445-3.254,9.798-1.888c1.088,0.458,2.094,1.097,2.966,1.888
				c1.645,1.726,2.571,4,2.607,6.382C251.308,419.409,251.245,420.012,251.146,420.605z M248.719,389.234
				c-1.69,1.69-3.991,2.634-6.382,2.607c-0.575-0.018-1.142-0.072-1.708-0.18c-0.593-0.081-1.169-0.27-1.708-0.539
				c-0.575-0.198-1.115-0.467-1.618-0.809l-1.348-1.079c-1.645-1.726-2.571-4-2.607-6.382c0.018-1.178,0.261-2.337,0.719-3.416
				c0.431-1.097,1.079-2.103,1.888-2.966l1.348-1.079c0.503-0.342,1.043-0.611,1.618-0.809c0.539-0.27,1.115-0.458,1.708-0.539
				c2.93-0.53,5.933,0.369,8.09,2.427c0.791,0.872,1.429,1.879,1.888,2.966c0.458,1.079,0.71,2.238,0.719,3.416
				C251.353,385.243,250.409,387.544,248.719,389.234z M248.719,353.279c-1.69,1.69-3.991,2.634-6.382,2.607
				c-0.575-0.018-1.142-0.072-1.708-0.18c-0.593-0.081-1.169-0.27-1.708-0.539c-0.575-0.198-1.115-0.467-1.618-0.809l-1.348-1.079
				c-1.645-1.726-2.571-4-2.607-6.382c0.018-1.177,0.261-2.337,0.719-3.416c0.431-1.097,1.079-2.103,1.888-2.966
				c0.431-0.386,0.881-0.746,1.348-1.079c0.503-0.342,1.043-0.611,1.618-0.809c0.539-0.27,1.115-0.458,1.708-0.539
				c4.207-0.926,8.449,1.366,9.978,5.393c0.458,1.079,0.71,2.238,0.719,3.416C251.353,349.288,250.409,351.589,248.719,353.279z
				 M251.146,312.74c-0.099,0.566-0.279,1.106-0.539,1.618c-0.198,0.575-0.467,1.115-0.809,1.618l-1.079,1.348
				c-1.726,1.645-4,2.571-6.382,2.607c-0.575-0.018-1.142-0.072-1.708-0.18c-0.593-0.081-1.169-0.27-1.708-0.539
				c-0.575-0.198-1.115-0.467-1.618-0.809c-0.467-0.333-0.917-0.692-1.348-1.079c-3.479-3.542-3.479-9.223,0-12.764
				c3.604-3.326,9.16-3.326,12.764,0l1.079,1.348c0.342,0.503,0.611,1.043,0.809,1.618c0.261,0.512,0.44,1.052,0.539,1.618
				C251.389,310.331,251.389,311.553,251.146,312.74z M314.247,427.796h-35.955c-4.962,0-8.989-4.027-8.989-8.989
				c0-4.962,4.027-8.989,8.989-8.989h35.955c4.962,0,8.989,4.027,8.989,8.989C323.236,423.769,319.209,427.796,314.247,427.796z
				 M314.247,391.841h-35.955c-4.962,0-8.989-4.027-8.989-8.989s4.027-8.989,8.989-8.989h35.955c4.962,0,8.989,4.027,8.989,8.989
				S319.209,391.841,314.247,391.841z M314.247,355.886h-35.955c-4.962,0-8.989-4.027-8.989-8.989c0-4.962,4.027-8.989,8.989-8.989
				h35.955c4.962,0,8.989,4.027,8.989,8.989C323.236,351.859,319.209,355.886,314.247,355.886z M314.247,319.931h-35.955
				c-4.962,0-8.989-4.027-8.989-8.989s4.027-8.989,8.989-8.989h35.955c4.962,0,8.989,4.027,8.989,8.989
				S319.209,319.931,314.247,319.931z M458.067,427.796H350.202c-4.962,0-8.989-4.027-8.989-8.989c0-4.962,4.027-8.989,8.989-8.989
				h107.865c4.962,0,8.989,4.027,8.989,8.989C467.056,423.769,463.029,427.796,458.067,427.796z M458.067,391.841H350.202
				c-4.962,0-8.989-4.027-8.989-8.989s4.027-8.989,8.989-8.989h107.865c4.962,0,8.989,4.027,8.989,8.989
				S463.029,391.841,458.067,391.841z M458.067,355.886H350.202c-4.962,0-8.989-4.027-8.989-8.989c0-4.962,4.027-8.989,8.989-8.989
				h107.865c4.962,0,8.989,4.027,8.989,8.989C467.056,351.859,463.029,355.886,458.067,355.886z M467.056,310.942
				c0,4.962-4.027,8.989-8.989,8.989H350.202c-4.962,0-8.989-4.027-8.989-8.989s4.027-8.989,8.989-8.989h107.865
				C463.029,301.953,467.056,305.98,467.056,310.942z M233.348,32.29c26.724,0,48.892,19.437,53.173,44.944h-18.363
				c-1.591-6.169-4.801-11.861-9.381-16.44c-6.742-6.742-15.892-10.526-25.429-10.526c-19.856,0-35.955,16.099-35.955,35.955
				c0,19.856,16.099,35.955,35.955,35.955c16.752,0,30.83-11.459,34.822-26.966h18.343c-4.298,25.496-26.45,44.92-53.165,44.944
				c-29.789,0-53.933-24.144-53.933-53.933S203.56,32.29,233.348,32.29z"/>
			<path d="M395.146,490.717h-89.888c-4.962-0.018-8.971-4.027-8.989-8.989h-98.876v8.989c0.027,9.915,8.063,17.951,17.978,17.978
				h269.663c9.915-0.027,17.951-8.063,17.978-17.978v-8.989h-98.876C404.117,486.69,400.108,490.699,395.146,490.717z"/>
			<path d="M197.393,274.978c0.045-14.876,12.09-26.921,26.966-26.966h50.157c-19.326-46.733-71.371-71.811-113.888-92.306
				c-5.393-2.517-10.607-5.034-15.551-7.461C98.247,124.875,92.584,55.032,92.405,25.189c-9.825,4.243-18.742,10.355-26.247,17.978
				C55.47,54.412,47.236,67.76,41.978,82.358c-2.472,7.11-4.485,14.382-6.022,21.753l-0.27,0.989
				c-1.636,6.391-3.928,12.593-6.831,18.517c-1.258,2.787-2.517,5.573-3.685,8.449c-0.476,1.214-0.782,2.481-0.899,3.775
				c0.18,1.169,2.966,3.685,4.944,5.573c6.139,4.369,10.076,11.191,10.787,18.697c-0.072,3.631-1.061,7.191-2.876,10.337
				c-8.665,18.085-19.281,35.173-31.64,50.966l-0.539,0.629c-1.888,2.229-3.542,4.638-4.944,7.191
				c0.809,0.719,1.978,1.618,2.697,2.157c1.735,1.195,3.569,2.247,5.483,3.146c6.292,3.146,14.921,7.551,16.629,16.989
				c1.169,5.609,0.476,11.452-1.978,16.629c-1.169,2.427-2.427,4.584-3.506,6.472c-0.018,0.135-0.081,0.261-0.18,0.36
				c2.337,1.798,5.034,3.865,6.831,5.124c1.942,1.456,3.236,3.622,3.596,6.022c0.324,2.427-0.324,4.881-1.798,6.831
				c-0.548,0.638-1.034,1.33-1.438,2.067c6.4,2.84,11.254,8.315,13.303,15.011c1.088,5.151,0.872,10.499-0.629,15.551
				c-0.27,1.348-0.629,2.697-0.809,4.045c-0.36,3.757,0.162,7.542,1.528,11.056c1.222,5.312,6.418,8.719,11.775,7.73
				c8.449-1.708,19.416-4.854,30.112-8.18c10.786-3.326,21.214-6.831,28.494-9.438h0.09l14.562-5.034
				c6.921-2.337,12.135-4.225,14.562-4.944c9.115-2.553,17.717-6.661,25.438-12.135c2.508-2.031,5.906-2.571,8.917-1.42
				c3.011,1.151,5.178,3.838,5.672,7.02c0.494,3.191-0.746,6.4-3.263,8.414c-9.51,6.903-20.153,12.081-31.461,15.281
				c-2.247,0.719-6.742,2.247-12.764,4.405c10.022,11.802,17.438,25.582,21.753,40.449l43.775-0.18V274.978z"/>
		</g>
	</g>
</g>
<g>
</g>
<g>
</g>
<g>
</g>
<g>
</g>
<g>
</g>
<g>
</g>
<g>
</g>
<g>
</g>
<g>
</g>
<g>
</g>
<g>
</g>
<g>
</g>
<g>
</g>
<g>
</g>
<g>
</g>
</svg>
