<svg id="Capa_1" enable-background="new 0 0 512 512" height="512" viewBox="0 0 512 512" width="512" xmlns="http://www.w3.org/2000/svg"><g><g><path d="m492.075 402.218h-13.163v-253.28c0-18.472-15.027-33.499-33.499-33.499h-45.857c-4.143 0-7.5 3.357-7.5 7.5s3.357 7.5 7.5 7.5h45.857c10.2 0 18.499 8.299 18.499 18.499v253.28c-24.476 0-390.966 0-415.824 0v-253.28c0-10.2 8.298-18.499 18.499-18.499h26.243c4.142 0 7.5-3.357 7.5-7.5s-3.358-7.5-7.5-7.5h-26.243c-18.471 0-33.499 15.027-33.499 33.499v253.28h-13.163c-10.987 0-19.925 8.938-19.925 19.926 0 30.453 24.776 55.229 55.229 55.229h401.542c30.453 0 55.229-24.775 55.229-55.229 0-10.988-8.938-19.926-19.925-19.926zm-163.775 15v7.539c0 4.156-3.382 7.538-7.539 7.538h-129.522c-4.157 0-7.539-3.382-7.539-7.538v-7.539zm128.471 45.154h-401.542c-22.182 0-40.229-18.047-40.229-40.228 0-2.716 2.209-4.926 4.925-4.926h148.775v7.539c0 12.428 10.111 22.538 22.539 22.538h129.522c12.428 0 22.539-10.11 22.539-22.538v-7.539h148.775c2.716 0 4.925 2.21 4.925 4.926 0 22.181-18.047 40.228-40.229 40.228z"/><path d="m82.655 150.644c-7.919 0-14.361 6.442-14.361 14.361v202.645c0 7.919 6.442 14.361 14.361 14.361h346.689c7.919 0 14.361-6.442 14.361-14.361v-202.645c0-7.919-6.442-14.361-14.361-14.361h-49.719c-9.55-65.322-65.373-115.782-132.605-116.015-.16-.001-.32-.001-.48-.001-68.548 0-124.365 50.974-133.26 116.016zm346.051 15v201.368h-135.549v-6.843c0-3.998 1.558-7.756 4.386-10.582 2.825-2.822 6.579-4.376 10.572-4.376h.013l28.723.025h.052c8.762 0 17-3.408 23.2-9.6 6.214-6.203 9.636-14.455 9.637-23.235l.004-42.232c0-4.124 3.337-7.466 7.465-7.466 18.097-.362 27.277-18.057 20.574-32.128l-15.685-32.925c-.462-.969-.712-2.047-.726-3.12-.358-28.923-.322-26.82-.395-28.887h47.729zm-182.164-116.016c.141 0 .287 0 .427.001 65.675.228 119.105 54.466 119.106 121l.299 24.086c.039 3.226.793 6.472 2.181 9.386l15.686 32.926c2.215 4.653-.784 10.677-7.038 10.677-12.381 0-22.459 10.021-22.459 22.465l-.004 42.231c0 4.771-1.859 9.253-5.234 12.623-3.369 3.362-7.844 5.214-12.607 5.214-.01 0-.02 0-.028 0l-28.728-.025c-.01 0-.018 0-.027 0-7.996 0-15.516 3.112-21.174 8.766-5.664 5.659-8.783 13.186-8.783 21.192v6.843h-106.11v-28.383c0-4.143-3.358-7.5-7.5-7.5s-7.5 3.357-7.5 7.5v28.382h-73.755v-201.368h28.768c-.931 36.629 12.736 71.167 37.818 97.076 4.624 4.775 7.169 11.135 7.169 17.908v22.938c0 4.143 3.358 7.5 7.5 7.5s7.5-3.357 7.5-7.5v-22.938c0-10.688-4.046-20.754-11.392-28.342-24.086-24.88-36.131-58.508-33.207-93.333.004-.041.007-.082.011-.123 5.125-60.299 55.647-109.202 119.081-109.202z"/><path d="m178.589 191.898c-4.142 0-7.5 3.357-7.5 7.5s3.358 7.5 7.5 7.5h13.148v4.159c0 11.548 9.396 20.943 20.944 20.943h4.087v13.077c0 4.143 3.358 7.5 7.5 7.5s7.5-3.357 7.5-7.5v-13.077h10.75v13.077c0 4.143 3.358 7.5 7.5 7.5s7.5-3.357 7.5-7.5v-13.077h10.75v13.077c0 4.143 3.357 7.5 7.5 7.5s7.5-3.357 7.5-7.5v-13.077h4.087c11.549 0 20.944-9.396 20.944-20.943v-4.159h13.147c4.143 0 7.5-3.357 7.5-7.5s-3.357-7.5-7.5-7.5h-13.147v-10.75h13.147c4.143 0 7.5-3.357 7.5-7.5s-3.357-7.5-7.5-7.5h-13.147v-10.75h13.147c4.143 0 7.5-3.357 7.5-7.5s-3.357-7.5-7.5-7.5h-13.147v-4.016c0-11.549-9.396-20.944-20.944-20.944h-4.087v-13.22c0-4.143-3.357-7.5-7.5-7.5s-7.5 3.357-7.5 7.5v13.22h-10.75v-13.22c0-4.143-3.358-7.5-7.5-7.5s-7.5 3.357-7.5 7.5v13.22h-10.75v-13.22c0-4.143-3.358-7.5-7.5-7.5s-7.5 3.357-7.5 7.5v13.22h-4.087c-11.549 0-20.944 9.396-20.944 20.944v4.016h-13.148c-4.142 0-7.5 3.357-7.5 7.5s3.358 7.5 7.5 7.5h13.148v10.75h-13.148c-4.142 0-7.5 3.357-7.5 7.5s3.358 7.5 7.5 7.5h13.148v10.75zm28.149-55.515c0-3.277 2.667-5.944 5.944-5.944h74.674c3.277 0 5.944 2.667 5.944 5.944v74.675c0 3.277-2.667 5.943-5.944 5.943h-74.674c-3.278 0-5.944-2.666-5.944-5.943z"/></g></g></svg>