<svg id="Layer_1" enable-background="new 0 0 506.84 506.84" height="512" viewBox="0 0 506.84 506.84" width="512" xmlns="http://www.w3.org/2000/svg"><path d="m502.036 141.941c-3.58-4.359-85.716-86.54-135.788-137.059-2.756-2.833-7.039-4.882-11.712-4.882h-337.441c-9.108 0-16.491 7.383-16.491 16.49v337.441c0 4.4 1.734 8.388 4.543 11.345.414.458-1.267-1.252 135.444 136.682 2.946 3.003 7.153 4.882 11.712 4.882h337.441c9.107 0 16.49-7.383 16.49-16.49v-337.442c.001-4.217-1.595-8.051-4.198-10.967zm-131.01 205.203v-177.746h102.229v280.888zm-235.213 103.143-79.157-79.865h79.157zm-102.228-112.846v-280.888l102.229 103.143v177.746h-102.229zm337.441-280.888 79.157 79.865h-79.157zm-32.98 79.865h-178.869l-102.521-103.438h281.39zm0 32.98v168.043h-169.252v-168.043zm-169.252 201.024h178.869l102.521 103.438h-281.39z"/></svg>