<svg height="384pt" viewBox="0 0 384.008 384" width="384pt" xmlns="http://www.w3.org/2000/svg"><path d="m48 272.003906s80 0 144-64c-64-64-144-64-144-64zm0 0" fill="#cce4ff"/><path d="m368 271.355469v-126.703125c-36.328125 2.34375-125.824219 13.175781-176 63.351562 50.175781 50.175782 139.671875 61.007813 176 63.351563zm0 0" fill="#cce4ff"/><g fill="#007aff"><path d="m384 128.003906c-5.199219 0-121.734375.734375-191.792969 58.320313-48.414062-42.488281-102.054687-54.039063-128.207031-57.160157v-129.16015575h-32v319.99999975h-32v32h32v32h32v-32h320v-32h-320v-33.160156c26.152344-3.121094 79.792969-14.671875 128.207031-57.160156 70.058594 57.585937 186.59375 58.320312 191.792969 58.320312v-32c-1.128906 0-105.902344-.617187-167.679688-48 61.671876-47.257812 166.558594-48 167.6875-48zm-320 33.542969c22.566406 3.265625 65.328125 13.625 104.289062 46.457031-38.960937 32.832032-81.722656 43.191406-104.289062 46.457032zm0 0"/><path d="m240 .00390625c-31.03125 0-57.257812 22.21484375-62.351562 52.82421875l-2.847657 17.097656c-2.527343 15.109375-15.472656 26.078125-30.800781 26.078125h-8v32h8c31.03125 0 57.257812-22.214844 62.351562-52.824218l2.847657-17.09375c2.527343-15.113282 15.472656-26.082032 30.800781-26.082032zm0 0"/><path d="m240 64.003906h32v32h-32zm0 0"/><path d="m296 64.003906h32v32h-32zm0 0"/><path d="m352 64.003906h32v32h-32zm0 0"/></g></svg>