<svg height="512pt" viewBox="0 -76 512.00002 512" width="512pt" xmlns="http://www.w3.org/2000/svg"><path d="m452.8125 95.195312h-98.375l-49.1875 85.195313 49.1875 85.195313h98.375l49.1875-85.195313zm0 0" fill="#ff415b"/><path d="m157.5625 95.84375h-98.375l-13.441406 23.273438-35.746094 61.917968 49.1875 85.195313h98.375l49.1875-85.195313zm0 0" fill="#f5f0eb"/><path d="m305.191406 10h-98.375l-49.1875 85.195312 49.1875 85.195313h98.375l49.1875-85.195313zm0 0" fill="#e1fd9f"/><path d="m305.191406 180.390625h-98.375l-49.1875 85.195313 49.1875 85.195312h98.375l49.1875-85.195312zm0 0" fill="#00d7df"/><path d="m510.660156 175.390625-49.1875-85.195313c-1.785156-3.09375-5.085937-5-8.660156-5h-92.660156l-46.300782-80.195312c-1.785156-3.09375-5.085937-5-8.660156-5h-98.375c-3.570312 0-6.871094 1.90625-8.660156 5l-46.300781 80.195312h-51.953125c-5.523438 0-10 4.476563-10 10 0 5.523438 4.476562 10 10 10h51.886718l43.414063 75.195313-43.414063 75.195313h-86.828124l-43.414063-75.195313 25.710937-44.53125c2.761719-4.78125 1.121094-10.898437-3.660156-13.660156-4.785156-2.761719-10.902344-1.125-13.660156 3.660156l-28.597656 49.53125c-1.785156 3.09375-1.785156 6.90625 0 10l49.1875 85.195313c1.785156 3.09375 5.085937 5 8.660156 5h92.667969l46.300781 80.195312c1.789062 3.09375 5.089844 5 8.660156 5h98.375c3.574219 0 6.875-1.90625 8.660156-5l46.300782-80.195312h52.9375c5.523437 0 10-4.476563 10-10 0-5.523438-4.476563-10-10-10h-52.878906l-43.410157-75.195313 43.410157-75.195313h86.828124l43.414063 75.195313-25.949219 44.945313c-2.761718 4.785156-1.125 10.898437 3.660156 13.660156 4.785157 2.761718 10.898438 1.125 13.660157-3.660156l28.835937-49.945313c1.785156-3.09375 1.785156-6.90625 0-10zm-298.070312-155.390625h86.828125l43.414062 75.195312-43.414062 75.195313h-86.828125l-43.414063-75.195313zm86.828125 320.78125h-86.828125l-43.414063-75.195312 43.414063-75.195313h86.828125l43.414062 75.195313zm0 0"/><path d="m65.054688 184.515625c-3.03125 4.613281-1.75 10.816406 2.867187 13.847656l25.371094 16.671875c1.6875 1.105469 3.59375 1.644532 5.484375 1.644532 2.925781 0 5.816406-1.285157 7.777344-3.710938l42.542968-52.574219c3.476563-4.292969 2.8125-10.589843-1.484375-14.0625-4.289062-3.476562-10.589843-2.8125-14.0625 1.480469l-36.84375 45.53125-17.804687-11.695312c-4.617188-3.035157-10.816406-1.75-13.847656 2.867187zm0 0"/><path d="m224.886719 127.890625c1.953125 1.953125 4.511719 2.929687 7.070312 2.929687 2.5625 0 5.121094-.976562 7.074219-2.929687l18.550781-18.550781 18.550781 18.550781c1.953126 1.953125 4.511719 2.929687 7.070313 2.929687s5.117187-.976562 7.070313-2.929687c3.90625-3.90625 3.90625-10.238281 0-14.144531l-18.550782-18.550782 18.550782-18.550781c3.90625-3.90625 3.90625-10.238281 0-14.144531s-10.234376-3.90625-14.140626 0l-18.550781 18.550781-18.554687-18.550781c-3.90625-3.90625-10.234375-3.90625-14.140625 0-3.90625 3.902344-3.90625 10.238281 0 14.144531l18.550781 18.550781-18.550781 18.550782c-3.90625 3.90625-3.90625 10.238281 0 14.144531zm0 0"/><path d="m403.625 223.546875c5.523438 0 10-4.480469 10-10v-26.238281h26.234375c5.523437 0 10.003906-4.476563 10.003906-10 0-5.523438-4.480469-10-10.003906-10h-26.234375v-26.234375c0-5.523438-4.476562-10-10-10s-10 4.476562-10 10v26.234375h-26.234375c-5.523437 0-10.003906 4.476562-10.003906 10 0 5.523437 4.480469 10 10.003906 10h26.234375v26.238281c0 5.523437 4.476562 10 10 10zm0 0"/><path d="m221.34375 255.585938c-5.519531 0-10 4.476562-10 10 0 5.523437 4.480469 10 10 10h72.472656c5.523438 0 10-4.476563 10-10 0-5.523438-4.476562-10-10-10zm0 0"/><path d="m54.425781 106.425781.277344.210938c1.808594 1.378906 3.9375 2.042969 6.050781 2.042969 3.015625 0 5.996094-1.359376 7.964844-3.941407 3.34375-4.394531 2.496094-10.667969-1.898438-14.015625l-.277343-.210937c-4.394531-3.351563-10.671875-2.496094-14.015625 1.898437-3.347656 4.394532-2.496094 10.667969 1.898437 14.015625zm0 0"/><path d="m459.316406 256.273438-.277344-.214844c-4.394531-3.347656-10.667968-2.492188-14.015624 1.898437-3.347657 4.394531-2.496094 10.667969 1.898437 14.015625l.277344.210938c1.808593 1.378906 3.9375 2.046875 6.050781 2.046875 3.015625 0 5.996094-1.359375 7.964844-3.945313 3.34375-4.394531 2.496094-10.667968-1.898438-14.011718zm0 0"/></svg>