<svg id="Capa_1" enable-background="new 0 0 512 512" height="512" viewBox="0 0 512 512" width="512" xmlns="http://www.w3.org/2000/svg"><g><path d="m512 368.501v-300.001h-75v67.501h-38.5c0-12.406-10.094-22.5-22.5-22.5-5.757 0-11.017 2.174-15 5.743-3.983-3.569-9.243-5.743-15-5.743s-11.017 2.174-15 5.743c-3.983-3.569-9.243-5.743-15-5.743-12.406 0-22.5 10.094-22.5 22.5h-104.999c0-12.406-10.094-22.5-22.5-22.5-5.757 0-11.017 2.174-15 5.743-3.984-3.569-9.243-5.743-15-5.743-12.406 0-22.5 10.094-22.5 22.5h-23.501v15h23.5c0 12.407 10.094 22.5 22.5 22.5 5.757 0 11.017-2.174 15-5.744 3.983 3.57 9.243 5.744 15 5.744 12.406 0 22.5-10.093 22.5-22.5h104.998c0 12.407 10.094 22.5 22.5 22.5 5.757 0 11.017-2.174 15-5.743 3.983 3.569 9.243 5.743 15 5.743s11.017-2.174 15-5.744c3.984 3.57 9.243 5.744 15 5.744 12.406 0 22.5-10.093 22.5-22.5h38.502v59.999h-38.5c0-12.406-10.094-22.5-22.5-22.5-5.757 0-11.017 2.174-15 5.743-3.983-3.569-9.243-5.743-15-5.743s-11.017 2.174-15 5.743c-3.983-3.569-9.243-5.743-15-5.743s-11.017 2.174-15 5.743c-3.983-3.569-9.243-5.743-15-5.743-12.407 0-22.5 10.094-22.5 22.5h-104.999c0-12.406-10.094-22.5-22.5-22.5s-22.5 10.094-22.5 22.5h-38.501v-142.5h-75v59.999h15v-44.999h45v345h-45v-285.001h-15v300.001h75v-67.501h38.5c0 12.406 10.094 22.5 22.5 22.5 12.407 0 22.5-10.094 22.5-22.5h104.998c0 12.406 10.094 22.5 22.5 22.5 5.757 0 11.017-2.174 15-5.743 3.983 3.569 9.243 5.743 15 5.743s11.017-2.174 15-5.743c3.983 3.569 9.243 5.743 15 5.743s11.017-2.174 15-5.743c3.984 3.569 9.243 5.743 15 5.743 12.406 0 22.5-10.094 22.5-22.5h23.502v-15h-23.5c0-12.406-10.094-22.5-22.5-22.5-5.757 0-11.017 2.174-15 5.743-3.983-3.569-9.243-5.743-15-5.743s-11.017 2.174-15 5.743c-3.983-3.569-9.243-5.743-15-5.743s-11.017 2.174-15 5.743c-3.983-3.569-9.243-5.743-15-5.743-12.407 0-22.5 10.094-22.5 22.5h-104.999c0-12.406-10.094-22.5-22.5-22.5s-22.5 10.094-22.5 22.5h-38.501v-59.999h38.5c0 12.406 10.094 22.5 22.5 22.5 5.757 0 11.017-2.174 15-5.743 3.983 3.569 9.243 5.743 15 5.743s11.017-2.174 15-5.743c3.983 3.569 9.243 5.743 15 5.743 12.406 0 22.5-10.094 22.5-22.5h104.998c0 12.406 10.094 22.5 22.5 22.5 5.757 0 11.017-2.174 15-5.743 3.984 3.569 9.243 5.743 15 5.743 12.406 0 22.5-10.094 22.5-22.5h38.502v142.5h75v-59.999h-15v44.999h-45v-345h45v285.001zm-368.499-217.501c0 4.136-3.365 7.501-7.5 7.501s-7.5-3.365-7.5-7.501v-14.999c0-4.136 3.364-7.5 7.5-7.5s7.5 3.364 7.5 7.5zm30 0c0 4.136-3.364 7.501-7.5 7.501s-7.5-3.365-7.5-7.501v-14.999c0-4.136 3.364-7.5 7.5-7.5s7.5 3.364 7.5 7.5zm149.998 0c0 4.136-3.364 7.501-7.5 7.501s-7.5-3.365-7.5-7.501v-14.999c0-4.136 3.364-7.5 7.5-7.5s7.5 3.364 7.5 7.5zm30 0c0 4.136-3.364 7.501-7.5 7.501s-7.5-3.365-7.5-7.501v-14.999c0-4.136 3.364-7.5 7.5-7.5s7.5 3.364 7.5 7.5zm30.001 0c0 4.136-3.364 7.501-7.5 7.501s-7.5-3.365-7.5-7.501v-14.999c0-4.136 3.365-7.5 7.5-7.5s7.5 3.364 7.5 7.5zm-15.001 209.999c0-4.136 3.365-7.5 7.5-7.5s7.5 3.364 7.5 7.5v15c0 4.136-3.364 7.5-7.5 7.5s-7.5-3.364-7.5-7.5zm-30 0c0-4.136 3.364-7.5 7.5-7.5s7.5 3.364 7.5 7.5v15c0 4.136-3.364 7.5-7.5 7.5s-7.5-3.364-7.5-7.5zm-30 0c0-4.136 3.364-7.5 7.5-7.5s7.5 3.364 7.5 7.5v15c0 4.136-3.364 7.5-7.5 7.5s-7.5-3.364-7.5-7.5zm-30 0c0-4.136 3.365-7.5 7.5-7.5s7.5 3.364 7.5 7.5v15c0 4.136-3.364 7.5-7.5 7.5s-7.5-3.364-7.5-7.5zm-149.999 0c0-4.136 3.364-7.5 7.5-7.5s7.5 3.364 7.5 7.5v15c0 4.136-3.365 7.5-7.5 7.5s-7.5-3.364-7.5-7.5zm239.999-149.999c0-4.136 3.365-7.5 7.5-7.5s7.5 3.364 7.5 7.5v15c0 4.136-3.364 7.5-7.5 7.5s-7.5-3.364-7.5-7.5zm-30 0c0-4.136 3.364-7.5 7.5-7.5s7.5 3.364 7.5 7.5v15c0 4.136-3.364 7.5-7.5 7.5s-7.5-3.364-7.5-7.5zm-30 0c0-4.136 3.364-7.5 7.5-7.5s7.5 3.364 7.5 7.5v15c0 4.136-3.364 7.5-7.5 7.5s-7.5-3.364-7.5-7.5zm-30 0c0-4.136 3.365-7.5 7.5-7.5s7.5 3.364 7.5 7.5v15c0 4.136-3.364 7.5-7.5 7.5s-7.5-3.364-7.5-7.5zm-149.999 0c0-4.136 3.364-7.5 7.5-7.5s7.5 3.364 7.5 7.5v15c0 4.136-3.365 7.5-7.5 7.5s-7.5-3.364-7.5-7.5zm15.001 90c0 4.136-3.365 7.5-7.5 7.5s-7.5-3.364-7.5-7.5v-15c0-4.136 3.364-7.5 7.5-7.5s7.5 3.364 7.5 7.5zm30 0c0 4.136-3.364 7.5-7.5 7.5s-7.5-3.364-7.5-7.5v-15c0-4.136 3.364-7.5 7.5-7.5s7.5 3.364 7.5 7.5zm30 0c0 4.136-3.364 7.5-7.5 7.5s-7.5-3.364-7.5-7.5v-15c0-4.136 3.364-7.5 7.5-7.5s7.5 3.364 7.5 7.5zm149.998 0c0 4.136-3.364 7.5-7.5 7.5s-7.5-3.364-7.5-7.5v-15c0-4.136 3.364-7.5 7.5-7.5s7.5 3.364 7.5 7.5zm30.001 0c0 4.136-3.364 7.5-7.5 7.5s-7.5-3.364-7.5-7.5v-15c0-4.136 3.365-7.5 7.5-7.5s7.5 3.364 7.5 7.5zm15-15c0-12.406-10.094-22.5-22.5-22.5-5.757 0-11.017 2.174-15 5.743-3.983-3.569-9.243-5.743-15-5.743-12.406 0-22.5 10.094-22.5 22.5h-104.999c0-12.406-10.094-22.5-22.5-22.5-5.757 0-11.017 2.174-15 5.743-3.983-3.569-9.243-5.743-15-5.743s-11.017 2.174-15 5.743c-3.984-3.569-9.243-5.743-15-5.743-12.406 0-22.5 10.094-22.5 22.5h-38.501v-60h38.5c0 12.406 10.094 22.5 22.5 22.5 12.407 0 22.5-10.094 22.5-22.5h104.998c0 12.406 10.094 22.5 22.5 22.5 5.757 0 11.017-2.174 15-5.743 3.983 3.569 9.243 5.743 15 5.743s11.017-2.174 15-5.743c3.983 3.569 9.243 5.743 15 5.743s11.017-2.174 15-5.743c3.984 3.569 9.243 5.743 15 5.743 12.406 0 22.5-10.094 22.5-22.5h38.502v60z"/><path d="m467 98.499h15v15h-15z"/><path d="m30 398.5h15v15.001h-15z"/></g></svg>