<svg id="Capa_1" enable-background="new 0 0 508.877 508.877" height="512" viewBox="0 0 508.877 508.877" width="512" xmlns="http://www.w3.org/2000/svg"><g><path d="m506.68 398.262-42.607-42.607c-2.93-2.929-7.678-2.929-10.607 0s-2.929 7.678 0 10.606l29.807 29.806h-104.784v-211.356c.859 1.026 1.718 2.055 2.579 3.089 17.758 21.308 37.884 45.458 77.032 45.458 4.143 0 7.5-3.358 7.5-7.5s-3.357-7.5-7.5-7.5c-32.123 0-48.34-19.459-65.509-40.062-17.758-21.308-37.884-45.458-77.031-45.458-39.138 0-59.263 24.144-77.02 45.445-7.802 9.359-15.171 18.2-23.929 25.313-3.215 2.612-3.705 7.335-1.093 10.55 2.611 3.216 7.336 3.704 10.55 1.093 9.89-8.033 18.077-17.854 25.994-27.353 17.168-20.596 33.384-40.049 65.498-40.049 21.356 0 35.679 8.606 47.929 20.426v227.904h-31.049c-4.143 0-7.5 3.358-7.5 7.5s3.357 7.5 7.5 7.5h150.827l-29.802 29.801c-2.929 2.929-2.929 7.678 0 10.606 1.465 1.465 3.384 2.197 5.304 2.197 1.919 0 3.839-.732 5.304-2.197l42.607-42.607c2.929-2.927 2.929-7.676 0-10.605z"/><path d="m297.44 396.068h-131.031v-163.056c2.144.157 4.342.246 6.611.246 5.494 0 10.824-.477 15.843-1.418 4.071-.764 6.752-4.683 5.989-8.754-.764-4.071-4.68-6.75-8.754-5.989-4.109.771-8.508 1.162-13.077 1.162-32.112 0-48.326-19.455-65.492-40.052-13.409-16.089-27.245-32.676-48.929-40.662v-94.991l29.804 29.804c1.464 1.464 3.384 2.197 5.303 2.197s3.839-.732 5.303-2.197c2.929-2.929 2.929-7.678 0-10.606l-42.606-42.606c-.175-.175-.36-.341-.552-.499-.083-.068-.172-.128-.257-.192-.11-.083-.218-.168-.332-.244-.104-.069-.211-.129-.317-.193-.104-.062-.206-.127-.313-.185-.108-.058-.219-.107-.329-.159-.112-.053-.221-.108-.336-.156-.107-.044-.216-.08-.324-.119-.122-.044-.243-.091-.369-.129-.107-.032-.216-.056-.325-.083-.129-.033-.256-.068-.387-.095-.122-.024-.245-.038-.367-.056-.12-.018-.237-.04-.359-.052-.216-.021-.432-.03-.648-.033-.03 0-.059-.005-.089-.005s-.059.004-.089.005c-.216.003-.433.012-.648.033-.122.012-.24.034-.359.052-.122.018-.245.032-.367.056-.131.026-.259.062-.388.095-.108.027-.217.051-.324.083-.125.038-.246.085-.369.129-.108.039-.218.075-.324.119-.114.047-.224.103-.336.156-.11.052-.221.101-.329.159-.107.058-.209.123-.314.185-.106.063-.213.123-.316.192-.115.077-.223.162-.334.245-.085.064-.173.123-.256.191-.192.157-.376.323-.552.499l-42.606 42.607c-2.929 2.929-2.929 7.678 0 10.606 1.464 1.464 3.384 2.197 5.303 2.197s3.839-.732 5.303-2.197l29.805-29.804v353.514h-36.1c-4.142 0-7.5 3.358-7.5 7.5s3.358 7.5 7.5 7.5h36.1v45.891c0 4.142 3.358 7.5 7.5 7.5s7.5-3.358 7.5-7.5v-45.891h238.84c4.143 0 7.5-3.358 7.5-7.5s-3.357-7.5-7.5-7.5zm-238.84-242.222c15.151 7.302 26.023 20.305 37.405 33.963 14.15 16.979 29.817 35.75 55.404 42.677v165.583h-92.809z"/><path d="m265.865 304.813c-4.566 0-7.171-2.483-7.86-3.244-2.782-3.069-7.524-3.303-10.594-.521-3.069 2.781-3.303 7.524-.521 10.594 4.706 5.193 11.623 8.172 18.976 8.172 9.419 0 17.346-6.11 18.849-14.527 1.097-6.145-1.626-14.797-12.909-18.958-4.072-1.503-7.905-3.125-9.691-3.897.063-.232.366-.595 1.172-.838 3.61-1.089 8.364 1.475 9.754 2.464 3.331 2.424 8.001 1.709 10.448-1.612 2.459-3.333 1.75-8.029-1.583-10.488-1.146-.846-11.529-8.165-22.945-4.726-6.328 1.906-10.811 6.935-11.7 13.125-.843 5.873 1.706 11.523 6.651 14.748.332.216.679.405 1.041.566.226.101 5.607 2.497 11.662 4.73 2.628.969 3.37 2.047 3.334 2.25-.116.635-1.452 2.162-4.084 2.162z"/><path d="m166.409 437.594c-3.199 0-5.923 2.007-7.001 4.827-3.291-1.611-6.987-2.519-10.892-2.519-13.708 0-24.859 11.152-24.859 24.859 0 13.708 11.152 24.859 24.859 24.859 3.905 0 7.601-.908 10.892-2.519 1.078 2.82 3.802 4.827 7.001 4.827 4.142 0 7.5-3.358 7.5-7.5v-39.335c0-4.141-3.358-7.499-7.5-7.499zm-17.892 37.026c-5.437 0-9.859-4.423-9.859-9.859s4.423-9.859 9.859-9.859 9.859 4.423 9.859 9.859c-.001 5.437-4.423 9.859-9.859 9.859z"/><path d="m370.989 438.14c-4.334 0-8.36 1.037-11.894 2.865v-14.416c0-4.142-3.357-7.5-7.5-7.5s-7.5 3.358-7.5 7.5v57.839c0 4.142 3.357 7.5 7.5 7.5 2.672 0 5.011-1.401 6.34-3.505 3.801 2.226 8.238 3.505 13.054 3.505 14.83 0 26.895-12.064 26.895-26.894s-12.065-26.894-26.895-26.894zm0 38.788c-6.559 0-11.894-5.335-11.894-11.894s5.335-11.895 11.894-11.895 11.895 5.336 11.895 11.895-5.337 11.894-11.895 11.894z"/><path d="m188.344 77.143v30.467c0 4.142 3.358 7.5 7.5 7.5s7.5-3.358 7.5-7.5v-30.4h1.15c4.142 0 7.5-3.358 7.5-7.5s-3.358-7.5-7.5-7.5h-1.15v-5.051c.708-.092 1.682-.096 2.415.014 4.06.665 7.906-2.069 8.604-6.132.701-4.083-2.04-7.96-6.122-8.661-1.548-.266-9.556-1.353-15.158 3.368-3.056 2.576-4.739 6.38-4.739 10.712v5.817c-3.693.468-6.55 3.614-6.55 7.433s2.858 6.965 6.55 7.433z"/><path d="m270.647 104.002c1.353 1.02 2.938 1.512 4.51 1.512 2.273 0 4.521-1.03 5.994-2.985l9.38-12.44 9.976 13.146c1.476 1.944 3.715 2.966 5.98 2.966 1.579 0 3.173-.498 4.528-1.526 3.3-2.504 3.944-7.208 1.44-10.508l-12.54-16.524 10.376-13.761c2.494-3.308 1.834-8.01-1.473-10.504-3.309-2.496-8.011-1.834-10.504 1.473l-7.823 10.375-7.888-10.394c-2.504-3.299-7.21-3.945-10.509-1.44-3.3 2.504-3.944 7.208-1.44 10.508l10.452 13.772-11.933 15.826c-2.493 3.308-1.833 8.011 1.474 10.504z"/><path d="m240.158 109.698c.64 0 1.29-.083 1.937-.255 4.002-1.067 6.382-5.177 5.315-9.179-6.565-24.625-.396-41.312-.268-41.648 1.51-3.837-.361-8.178-4.194-9.711-3.846-1.538-8.21.333-9.749 4.179-.34.851-8.244 21.186-.283 51.044.894 3.356 3.927 5.57 7.242 5.57z"/><path d="m334.235 100.264c-1.066 4.002 1.313 8.112 5.314 9.179.647.172 1.298.255 1.938.255 3.314 0 6.348-2.215 7.242-5.57 7.961-29.858.057-50.193-.283-51.044-1.538-3.846-5.903-5.717-9.749-4.179s-5.717 5.903-4.179 9.749c.065.163 6.303 16.91-.283 41.61z"/></g></svg>